<svg width="24" height="44" viewBox="0 0 24 44" fill="none" xmlns="http://www.w3.org/2000/svg">
<path d="M3.8285 19.9804C4.02694 17.3141 4.13044 16.3036 5.21581 15.2183C6.30118 14.1329 7.31162 14.0294 9.978 13.8309C10.6408 13.7816 11.3215 13.752 11.9995 13.752C12.6775 13.752 13.3583 13.7816 14.021 13.8309C16.6874 14.0294 17.6978 14.1329 18.7832 15.2183C19.8686 16.3036 19.9721 17.3141 20.1705 19.9804C20.2199 20.6432 20.2495 21.3239 20.2495 22.002C20.2495 22.68 20.2199 23.3607 20.1705 24.0235C19.9721 26.6898 19.8686 27.7003 18.7832 28.7857C17.6978 29.871 16.6874 29.9745 14.021 30.173C13.3583 30.2223 12.6775 30.252 11.9995 30.252C11.3215 30.252 10.6408 30.2223 9.978 30.173C7.31162 29.9745 6.30118 29.871 5.21581 28.7857C4.13044 27.7003 4.02694 26.6898 3.8285 24.0235C3.77917 23.3607 3.74951 22.68 3.74951 22.002C3.74951 21.3239 3.77917 20.6432 3.8285 19.9804Z" fill="white" stroke="#F95721" stroke-width="1.5"/>
</svg>
