<svg width="24" height="44" viewBox="0 0 24 44" fill="none" xmlns="http://www.w3.org/2000/svg">
<path d="M3.08056 19.9248C3.27526 17.3088 3.37261 16.0008 4.68548 14.6879C5.99835 13.375 7.30635 13.2777 9.92233 13.083C10.6005 13.0325 11.3 13.002 11.9995 13.002C12.699 13.002 13.3986 13.0325 14.0767 13.083C16.6927 13.2777 18.0007 13.375 19.3135 14.6879C20.6264 16.0008 20.7238 17.3088 20.9185 19.9248C20.9689 20.6029 20.9995 21.3024 20.9995 22.002C20.9995 22.7015 20.9689 23.401 20.9185 24.0791C20.7238 26.6951 20.6264 28.0031 19.3135 29.316C18.0007 30.6289 16.6927 30.7262 14.0767 30.9209C13.3986 30.9714 12.699 31.002 11.9995 31.002C11.3 31.002 10.6005 30.9714 9.92233 30.9209C7.30635 30.7262 5.99835 30.6289 4.68548 29.316C3.37261 28.0031 3.27526 26.6951 3.08056 24.0791C3.0301 23.401 2.99951 22.7015 2.99951 22.002C2.99951 21.3024 3.0301 20.6029 3.08056 19.9248Z" fill="#FF0032"/>
<path fill-rule="evenodd" clip-rule="evenodd" d="M16.2071 20.2071C16.5976 19.8166 16.5976 19.1834 16.2071 18.7929C15.8166 18.4024 15.1834 18.4024 14.7929 18.7929L11 22.5858L9.70711 21.2929C9.31658 20.9024 8.68342 20.9024 8.29289 21.2929C7.90237 21.6834 7.90237 22.3166 8.29289 22.7071L10.2929 24.7071C10.6834 25.0976 11.3166 25.0976 11.7071 24.7071L16.2071 20.2071Z" fill="white"/>
</svg>
